PathFileType	4	(X/Y/Z)	Walk9.trc
DataRate	CameraRate	NumFrames	NumMarkers	Units	OrigDataRate	OrigDataStartFrame	OrigNumFrames
200.000000	200.000000	8	59	mm	200.000000	230	587
Frame#	Times		LFHD		RFHD		CLAV		STRN		LASI		RASI		RACR1		RUA1		RElbow		RFA1		RWRR		RWRU		RCAR		LACR1		LUA1		LElbow		LFA1		LWRR		RTH3		RTH2		RTB1		RTB2		RTB4		LTH1		LTH3		LTH2		LTB1		LTB2		LTB4		LMT1		LTB3		LCAR		LLFC		LWRU		LMFC		LToe		LMT5		RTB3		RMFC		RMMAL		RElbowM		LTH4		RTH4		RMT1		RLFC		RToe		LBHD		RCAL		RTH1		RBack		RPSI		C7		T10		LPSI		LElbowM		LMMAL		LLMAL		RBHD		LCAL
			X1	Y1	Z1	X2	Y2	Z2	X3	Y3	Z3	X4	Y4	Z4	X5	Y5	Z5	X6	Y6	Z6	X7	Y7	Z7	X8	Y8	Z8	X9	Y9	Z9	X10	Y10	Z10	X11	Y11	Z11	X12	Y12	Z12	X13	Y13	Z13	X14	Y14	Z14	X15	Y15	Z15	X16	Y16	Z16	X17	Y17	Z17	X18	Y18	Z18	X19	Y19	Z19	X20	Y20	Z20	X21	Y21	Z21	X22	Y22	Z22	X23	Y23	Z23	X24	Y24	Z24	X25	Y25	Z25	X26	Y26	Z26	X27	Y27	Z27	X28	Y28	Z28	X29	Y29	Z29	X30	Y30	Z30	X31	Y31	Z31	X32	Y32	Z32	X33	Y33	Z33	X34	Y34	Z34	X35	Y35	Z35	X36	Y36	Z36	X37	Y37	Z37	X38	Y38	Z38	X39	Y39	Z39	X40	Y40	Z40	X41	Y41	Z41	X42	Y42	Z42	X43	Y43	Z43	X44	Y44	Z44	X45	Y45	Z45	X46	Y46	Z46	X47	Y47	Z47	X48	Y48	Z48	X49	Y49	Z49	X50	Y50	Z50	X51	Y51	Z51	X52	Y52	Z52	X53	Y53	Z53	X54	Y54	Z54	X55	Y55	Z55	X56	Y56	Z56	X57	Y57	Z57	X58	Y58	Z58	X59	Y59	Z59

230	1.15	-507.86	1624.5	-5.9448	-507.15	1634	93.611	-511.17	1374.2	72.366	-445.08	1216.1	78.268	-553.77	951.53	-102.9	-582.57	963.65	269.6	-637.53	1461.6	232.95	-652.03	1296.6	356.33	-619.1	1158.4	420.33	-533.18	1036.1	425.28	-465.76	943.47	348.01	-472.65	939.69	429.58	-405.78	882.48	392.66	-613.8	1441.5	-117.25	-681.18	1278.5	-202.22	-734.25	1119.8	-243.19	-744.69	978.75	-247.33	-723.13	850.85	-179.64	-747.17	591.52	257.24	-676.21	668.7	258.57	-778.29	346.02	167.85	-838.53	274.63	216.78	-820.8	270.27	158.56	-555.25	744.41	-132.91	-483.04	590.48	-107.68	-469.81	694.63	-100.51	-359	426.4	-57.084	-360.53	328.45	-93.92	-328.77	348.77	-44.523	-157.43	118.1	-32.582	-304.29	265.4	-32.459	-739.48	759.09	-200.66	-471.2	508.77	-106.3	-772.8	839.99	-234.89	-443.33	508.24	49.13	-122.68	141.6	-75.131	-204.97	70.389	-96.982	-862.82	195.86	148.5	-792.68	487.69	89.001	-957.08	90.771	87.448	-649.02	1073.8	320.59	-520.36	668.11	-121.32	-733.38	675.22	270.11	-843.61	23.882	121.66	-792.32	480.19	243.28	-792.9	25.057	156.24	-659.31	1548.5	-9.7638	-1058.1	75.373	127.97	-720.53	760.02	283.18	-776.56	1338.1	170.92	-824.96	1014.8	87.034	-703.91	1457	58.978	-773.92	1142.2	54.726	-805.25	1006.9	7.1199	-807.87	1086.7	-146.96	-291.4	104.27	48.669	-321.61	82.284	-31.769	-645.25	1566.8	137.3	-344.53	34.415	29.459
231	1.155	-500.87	1623.4	-7.859	-500.26	1633	91.704	-504.1	1373.1	70.734	-437.96	1215.2	77.056	-546.35	950.39	-103.46	-575.53	963.12	268.41	-630.57	1461	231.14	-645.18	1296.1	354.82	-612.51	1158	419.03	-526.71	1035.7	424.01	-459.42	942.89	346.77	-466.25	939.2	428.34	-399.43	881.95	391.41	-606.76	1440	-119.01	-674.22	1276.9	-203.64	-727.42	1118.2	-244.43	-738.01	977.13	-248.36	-716.8	849.31	-180.33	-742.39	591.01	256.78	-671.06	667.84	258.19	-775.16	345.45	167.56	-836.13	274.71	216.52	-818.37	270.1	158.31	-547.26	744.06	-133.37	-475.08	590.18	-108.03	-461.79	694.31	-101.02	-351.59	425.22	-56.857	-353.82	327.25	-93.659	-322.17	347.32	-44.073	-153.34	114.21	-30.948	-298.61	263.72	-31.826	-733.43	757.49	-201.05	-463.19	508.46	-106.74	-766.32	838.43	-235.76	-435.66	507.8	48.667	-118.11	137.36	-73.055	-201.29	67.432	-95.651	-861.09	196.09	148.28	-788.01	487.26	88.524	-956.26	91.842	87.329	-642.83	1073.3	319.48	-512.42	667.78	-121.62	-728.21	674.64	269.63	-843.52	23.87	121.68	-788.24	479.94	242.82	-792.81	25.008	156.29	-652.29	1547.3	-11.733	-1057.4	77.426	127.76	-714.94	759.4	282.7	-769.63	1337.3	169.37	-818.02	1013.7	86.218	-696.99	1455.9	57.112	-766.87	1141.1	53.986	-798.15	1005.7	6.4623	-801.17	1085.3	-148.23	-287.92	102.46	49.386	-317.9	80.932	-31.295	-638.36	1565.8	135.31	-341.99	33.774	29.796
232	1.16	-493.86	1622.4	-9.8178	-493.34	1632.1	89.752	-496.99	1372.2	69.053	-430.8	1214.3	75.797	-538.91	949.33	-104.04	-568.38	962.61	267.17	-623.57	1460.4	229.3	-638.29	1295.8	353.29	-605.91	1157.6	417.67	-520.28	1035.3	422.71	-453.18	942.29	345.5	-459.93	938.71	427.07	-393.2	881.37	390.13	-599.73	1438.5	-120.81	-667.23	1275.2	-205.08	-720.52	1116.6	-245.68	-731.25	975.48	-249.41	-710.35	847.75	-181.08	-737.44	590.51	256.3	-665.77	667.01	257.8	-771.87	344.91	167.28	-833.58	274.84	216.27	-815.8	269.98	158.06	-539.27	743.8	-133.83	-467.15	589.95	-108.41	-453.77	694.06	-101.58	-344.27	424.06	-56.689	-347.25	326.08	-93.462	-315.7	345.89	-43.684	-149.51	110.06	-29.394	-293.11	262.05	-31.262	-727.22	755.88	-201.53	-455.23	508.22	-107.25	-759.72	836.86	-236.68	-428.17	507.35	48.146	-113.79	132.79	-71.034	-198	64.303	-94.38	-859.26	196.4	148.07	-783.12	486.84	88.051	-955.36	93.024	87.241	-636.68	1072.8	318.35	-504.49	667.51	-121.93	-722.89	674.09	269.13	-843.42	23.852	121.69	-783.97	479.7	242.37	-792.72	24.962	156.33	-645.24	1546.2	-13.745	-1056.7	79.668	127.59	-709.23	758.79	282.19	-762.67	1336.6	167.83	-811.02	1012.5	85.402	-690.05	1454.9	55.214	-759.79	1140.1	53.277	-791.03	1004.6	5.8157	-794.39	1083.9	-149.51	-284.7	100.69	50.044	-314.52	79.646	-30.882	-631.45	1564.9	133.27	-339.82	33.298	30.094
233	1.165	-486.82	1621.4	-11.82	-486.4	1631.3	87.756	-489.85	1371.3	67.328	-423.61	1213.6	74.496	-531.49	948.36	-104.64	-561.14	962.14	265.88	-616.52	1459.9	227.44	-631.36	1295.5	351.73	-599.3	1157.4	416.26	-513.89	1034.9	421.37	-447.02	941.67	344.21	-453.69	938.21	425.77	-387.09	880.75	388.83	-592.71	1437	-122.65	-660.23	1273.6	-206.53	-713.56	1114.9	-246.96	-724.4	973.82	-250.49	-703.76	846.19	-181.9	-732.3	590.04	255.81	-660.32	666.22	257.39	-768.41	344.38	166.99	-830.87	275.03	216.03	-813.1	269.91	157.82	-531.29	743.64	-134.31	-459.26	589.79	-108.85	-445.76	693.88	-102.17	-337.04	422.95	-56.608	-340.8	324.98	-93.35	-309.34	344.51	-43.382	-145.93	105.7	-27.975	-287.75	260.42	-30.796	-720.86	754.27	-202.1	-447.34	508.07	-107.83	-753.02	835.27	-237.63	-420.85	506.91	47.557	-109.72	127.94	-69.137	-195.06	61.047	-93.214	-857.31	196.77	147.87	-778.02	486.41	87.586	-954.39	94.326	87.187	-630.56	1072.5	317.2	-496.58	667.34	-122.27	-717.41	673.56	268.6	-843.34	23.83	121.69	-779.49	479.48	241.95	-792.64	24.917	156.36	-638.16	1545.1	-15.795	-1055.9	82.112	127.47	-703.39	758.22	281.65	-755.68	1336.1	166.28	-803.97	1011.4	84.586	-683.09	1453.9	53.287	-752.7	1139.1	52.597	-783.89	1003.6	5.1746	-787.55	1082.4	-150.81	-281.69	99.003	50.621	-311.4	78.456	-30.54	-624.52	1564	131.19	-337.94	33.013	30.348
234	1.17	-479.77	1620.5	-13.863	-479.44	1630.5	85.718	-482.68	1370.5	65.565	-416.38	1212.9	73.155	-524.08	947.49	-105.26	-553.8	961.68	264.54	-609.44	1459.4	225.56	-624.38	1295.3	350.14	-592.68	1157.2	414.81	-507.54	1034.5	419.99	-440.95	941.05	342.9	-447.55	937.71	424.46	-381.1	880.1	387.52	-585.69	1435.5	-124.51	-653.2	1272	-207.99	-706.54	1113.3	-248.26	-717.47	972.15	-251.59	-697.05	844.62	-182.77	-726.98	589.6	255.3	-654.7	665.48	256.96	-764.78	343.89	166.72	-827.99	275.27	215.81	-810.24	269.9	157.6	-523.32	743.59	-134.81	-451.4	589.74	-109.37	-437.77	693.8	-102.8	-329.89	421.91	-56.639	-334.47	323.97	-93.344	-303.09	343.2	-43.194	-142.55	101.19	-26.741	-282.52	258.87	-30.453	-714.33	752.67	-202.76	-439.51	508.02	-108.49	-746.2	833.68	-238.61	-413.68	506.53	46.888	-105.87	122.87	-67.431	-192.47	57.712	-92.195	-855.24	197.23	147.69	-772.69	485.99	87.133	-953.33	95.756	87.175	-624.46	1072.2	316.02	-488.69	667.27	-122.66	-711.77	673.07	268.06	-843.27	23.801	121.69	-774.79	479.29	241.55	-792.56	24.875	156.37	-631.07	1544.2	-17.879	-1055	84.769	127.39	-697.42	757.68	281.09	-748.66	1335.6	164.74	-796.88	1010.4	83.772	-676.1	1453	51.336	-745.6	1138.2	51.948	-776.73	1002.6	4.5341	-780.63	1081	-152.12	-278.84	97.428	51.097	-308.52	77.387	-30.284	-617.57	1563.3	129.07	-336.3	32.932	30.553
235	1.175	-472.69	1619.7	-15.945	-472.46	1629.8	83.64	-475.49	1369.8	63.767	-409.13	1212.3	71.778	-516.69	946.73	-105.88	-546.39	961.26	263.17	-602.3	1459.1	223.66	-617.37	1295.2	348.53	-586.05	1157	413.31	-501.24	1034.2	418.58	-434.98	940.41	341.57	-441.49	937.21	423.12	-375.23	879.41	386.19	-578.68	1434.1	-126.39	-646.15	1270.4	-209.46	-699.46	1111.7	-249.57	-710.46	970.49	-252.72	-690.21	843.05	-183.7	-721.45	589.18	254.79	-648.91	664.8	256.51	-760.96	343.42	166.46	-824.94	275.58	215.62	-807.23	269.95	157.41	-515.39	743.67	-135.33	-443.58	589.81	-109.98	-429.83	693.84	-103.48	-322.82	420.96	-56.803	-328.24	323.04	-93.461	-296.93	341.97	-43.14	-139.38	96.597	-25.728	-277.41	257.41	-30.254	-707.64	751.07	-203.51	-431.74	508.08	-109.24	-739.28	832.09	-239.63	-406.62	506.22	46.127	-102.25	117.63	-65.966	-190.18	54.351	-91.36	-853.03	197.77	147.55	-767.13	485.58	86.699	-952.17	97.323	87.208	-618.36	1071.9	314.81	-480.84	667.32	-123.11	-705.96	672.6	267.51	-843.2	23.767	121.68	-769.86	479.12	241.19	-792.5	24.834	156.36	-623.95	1543.3	-19.994	-1053.9	87.652	127.37	-691.31	757.18	280.5	-741.6	1335.2	163.21	-789.74	1009.4	82.965	-669.09	1452.2	49.365	-738.5	1137.4	51.331	-769.56	1001.8	3.891	-773.65	1079.5	-153.44	-276.11	95.994	51.456	-305.83	76.451	-30.123	-610.58	1562.6	126.91	-334.84	33.054	30.696
236	1.18	-465.6	1618.9	-18.06	-465.46	1629.3	81.525	-468.27	1369.1	61.94	-401.84	1211.8	70.366	-509.34	946.08	-106.51	-538.91	960.87	261.78	-595.12	1458.9	221.75	-610.31	1295.2	346.9	-579.42	1157	411.75	-494.98	1033.9	417.14	-429.1	939.78	340.21	-435.54	936.73	421.76	-369.49	878.7	384.85	-571.67	1432.8	-128.29	-639.08	1268.9	-210.92	-692.31	1110.1	-250.88	-703.37	968.85	-253.87	-683.25	841.5	-184.68	-715.72	588.78	254.27	-642.95	664.17	256.04	-756.93	342.98	166.23	-821.7	275.97	215.46	-804.04	270.06	157.24	-507.51	743.89	-135.89	-435.79	590.01	-110.69	-421.94	694.01	-104.21	-315.82	420.09	-57.112	-322.13	322.22	-93.712	-290.87	340.83	-43.233	-136.4	91.976	-24.954	-272.4	256.04	-30.21	-700.78	749.5	-204.35	-424.02	508.26	-110.09	-732.26	830.51	-240.68	-399.64	506.03	45.269	-98.868	112.32	-64.768	-188.2	51.016	-90.735	-850.67	198.4	147.44	-761.33	485.17	86.291	-950.89	99.036	87.294	-612.27	1071.8	313.56	-473.03	667.51	-123.63	-699.97	672.17	266.93	-843.15	23.727	121.66	-764.68	478.97	240.86	-792.46	24.793	156.34	-616.82	1542.5	-22.134	-1052.7	90.773	127.41	-685.05	756.72	279.89	-734.52	1334.9	161.7	-782.57	1008.5	82.171	-662.05	1451.5	47.381	-731.4	1136.7	50.748	-762.38	1001.1	3.2432	-766.58	1077.9	-154.76	-273.5	94.713	51.686	-303.33	75.652	-30.066	-603.58	1562	124.72	-333.52	33.362	30.769
237	1.185	-458.49	1618.3	-20.207	-458.45	1628.8	79.375	-461.04	1368.6	60.089	-394.52	1211.5	68.924	-502.02	945.55	-107.16	-531.38	960.52	260.36	-587.89	1458.8	219.83	-603.22	1295.3	345.25	-572.78	1157	410.15	-488.79	1033.6	415.67	-423.33	939.16	338.84	-429.69	936.27	420.39	-363.89	877.97	383.49	-564.67	1431.5	-130.2	-631.98	1267.4	-212.38	-685.09	1108.5	-252.2	-696.2	967.24	-255.04	-676.16	839.96	-185.72	-709.76	588.41	253.77	-636.8	663.61	255.56	-752.69	342.59	166.04	-818.25	276.42	215.34	-800.66	270.24	157.12	-499.69	744.26	-136.5	-428.05	590.35	-111.51	-414.11	694.32	-104.99	-308.92	419.29	-57.571	-316.14	321.5	-94.099	-284.91	339.78	-43.475	-133.63	87.389	-24.42	-267.52	254.77	-30.325	-693.76	747.96	-205.29	-416.37	508.54	-111.05	-725.12	828.96	-241.77	-392.7	505.97	44.31	-95.722	106.99	-63.843	-186.49	47.755	-90.333	-848.14	199.12	147.38	-755.28	484.78	85.918	-949.48	100.9	87.436	-606.16	1071.8	312.26	-465.26	667.84	-124.25	-693.8	671.78	266.35	-843.11	23.684	121.63	-759.23	478.86	240.59	-792.43	24.75	156.29	-609.66	1541.8	-24.295	-1051.4	94.142	127.51	-678.65	756.3	279.24	-727.4	1334.8	160.21	-775.37	1007.6	81.4	-654.99	1450.9	45.389	-724.3	1136.2	50.2	-755.19	1000.6	2.5899	-759.44	1076.4	-156.07	-270.99	93.585	51.784	-300.99	74.982	-30.114	-596.55	1561.6	122.5	-332.32	33.83	30.765
